
        <svg xmlns="http://www.w3.org/2000/svg" xmlns:xlink="http://www.w3.org/1999/xlink" version="1.1" width="3162.0536770912963" 
        height="893.9134933570665" viewBox="0 0 3162.0536770912963 893.9134933570665">
			
			<g transform="scale(8.102683854564823) translate(10, 10)">
				<defs id="SvgjsDefs1355"></defs><g id="SvgjsG1356" featureKey="symbolFeature-0" transform="matrix(0.5062955797479771,0,0,0.5062955797479771,-9.619616015211566,-12.910540180619963)" fill="#b469ff"><g xmlns="http://www.w3.org/2000/svg"><path fill-rule="evenodd" clip-rule="evenodd" fill="#b469ff" d="M231.4,177c-0.4-0.3-0.8-0.6-1.2-0.9c-0.5-0.3-1-0.6-1.6-0.9   c-1.2-0.7-2.6-1.5-4.2-2.1c-3.2-1.5-7.4-2.8-12.4-3.6c-5-0.8-10.8-0.9-17-0.1c-3.1,0.4-6.3,1.2-9.6,2.2c-0.8,0.3-1.6,0.6-2.5,0.9   c-0.8,0.4-1.6,0.8-2.5,1.2c-0.8,0.4-1.6,1-2.4,1.4c-0.8,0.5-1.6,1.2-2.4,1.9c-2.7,2.6-4.7,5.3-6.8,8c-2.1,2.7-4.2,5.4-6.5,7.7   c-1.1,1.1-2.3,2.1-3.2,2.5c-0.1-0.2-0.3-0.5-0.5-0.8c-0.1-0.2-0.3-0.6-0.4-0.9l-0.6-1.2c-0.8-1.9-1.9-3.8-3-5.5   c-2.3-3.5-5.2-6.7-8.6-9.5c-1.8-1.4-3.7-2.7-5.9-3.8c-2.2-1.1-4.7-2-7.8-2.3c-1.6-0.1-3.3-0.1-5.1,0.4c-1.8,0.5-3.6,1.4-5,2.7   c-0.7,0.6-1.3,1.3-1.8,1.9l-0.9,1.1l-1.8,2.2c-2.3,2.9-4.6,5.7-6.9,7.9c-0.3,0.3-0.6,0.6-0.9,0.8c-0.1-0.1-0.1-0.2-0.2-0.3   l-0.4-0.4c-0.5-0.5-1-1-1.5-1.5l-0.8-0.7c-0.3-0.2-0.5-0.4-0.8-0.6l-1.6-1.1c-1.1-0.7-2.3-1.3-3.4-1.9c-4.8-2.1-9.9-2.6-14.1-2.4   c-4.3,0.2-8.2,0.9-11.8,1.8c-7.1,1.7-13.2,3.9-18.7,5.8c-5.5,1.9-10.5,3.4-14.9,4.3c-4.4,1-8.3,1.3-11.6,1.2   c-0.8,0-1.6-0.1-2.3-0.2l41.8-21c2.5,0,4.6-2.1,4.6-4.6l-0.2-0.2L177.7,62.9l-4.6-4.6l9.6-9.7c2-2,2-5.3,0-7.3l-10.9-11   c-2-2-5.3-2-7.3,0l-9.6,9.7l-5.3-5.3l-4.1-4.3l0,0l-4.7-4.9L80.4,86.1l2.1,2.2l10.8-5.6l47.9-48l3.9,4.1L46.9,139.3l-0.4-0.4   c-2.5,0-4.6,2.1-4.6,4.6L19,189.7c0,0.5,0.1,1,0.2,1.4l-0.2,0.3c0,0,0.2,0.2,0.6,0.5c0.6,1.2,1.8,2,3.1,2.3   c1.5,0.9,3.6,2.1,6.3,2.9c3.6,1.2,8.3,2,13.5,1.9c5.2,0,11.1-0.7,17.1-1.8c6-1,12.4-2.5,18.7-3.4c6.3-1,12.6-1.2,16.5,0.5   c0.5,0.3,1,0.4,1.4,0.7c0.4,0.3,1,0.6,1.2,0.9c0.1,0.1,0.3,0.3,0.5,0.4l0.1,0.1c0,0,0.1,0.2,0.2,0.2l0.5,0.5l0.9,1l0.1,0.1l0.1,0.1   c-0.5-0.7-0.1-0.1-0.2-0.2l0.5,0.6l0.5,0.6l0.6,0.6l0.7,0.6c0.3,0.2,0.6,0.4,0.8,0.6c0.5,0.4,1.2,0.7,1.9,1   c1.4,0.6,3.1,0.8,4.5,0.7c2.9-0.2,4.8-1.2,6.2-2c2.8-1.7,4.3-3.4,5.8-5.1c2.9-3.3,5-6.6,7.1-9.8l1.5-2.4l0.8-1.2   c0.1-0.2,0.1-0.2,0.1-0.2c0-0.1,0-0.1,0.1-0.1c0.1-0.1,0.4-0.1,0.8-0.1c0.9,0,2.2,0.3,3.6,0.9c1.3,0.6,2.7,1.4,4.1,2.3   c2.6,1.9,5,4.2,7,6.9c1,1.3,1.8,2.6,2.6,4l0.6,1.2c0.3,0.5,0.5,1,0.9,1.6c0.4,0.5,0.7,1,1.2,1.6c0.4,0.5,1,1.1,1.6,1.6   c0.7,0.5,1.5,1.1,2.6,1.4c0.5,0.2,1,0.3,1.6,0.4c0.6,0.1,1.1,0.1,1.7,0.1c2.2-0.1,3.8-0.9,4.9-1.6c2.3-1.5,3.7-3,5-4.5   c2.5-3,4.5-6,6.4-8.8c1.9-2.8,3.7-5.6,5.5-7.8c1.6-1.8,4.3-3.4,7-4.5c2.7-1.1,5.5-2.1,8.3-2.6c5.5-1.2,10.9-1.5,15.5-1.2   c1.2,0,2.3,0.2,3.4,0.4c1.1,0.2,2.1,0.3,3.1,0.5c1,0.2,1.9,0.4,2.9,0.6c0.9,0.2,1.7,0.5,2.5,0.8c1.6,0.5,3,1.1,4.1,1.6   c0.6,0.3,1.2,0.5,1.7,0.7c0.5,0.3,0.9,0.5,1.3,0.8c1.6,0.9,2.4,1.4,2.4,1.4l0.8-1.1C233.7,178.6,232.9,178,231.4,177z M107.9,189.6   c-0.2,0.1-0.2,0,0.2-0.1C108,189.5,107.9,189.5,107.9,189.6z M158.5,195.4c0,0,0.1,0,0.1,0C158.4,195.5,158.3,195.4,158.5,195.4z"></path></g></g><g id="SvgjsG1357" featureKey="nameFeature-0" transform="matrix(0.612910641411439,0,0,0.612910641411439,127.85079254735355,33.186237579984244)" fill="#b469ff"><path d="M9.1406 1.328000000000003 l-7.2656 0 l14.531 22.578 l0 14.766 l7.1094 0 l0 -14.922 z M38.125 1.328000000000003 l-6.7969 0 l-8.5938 12.266 l3.8281 5.1563 z M71.703 38.5937 l7.0313 0 l-13.594 -37.266 l-7.1094 0 l7.8906 22.266 z M42.9531 38.5937 l6.875 0 l8.125 -19.844 l-3.3594 -8.9063 z M106.922 1.4059999999999988 c-2.8646 0 -5.5209 0.4686 -7.9688 1.4061 c-2.3959 0.9375 -4.4792 2.2396 -6.2501 3.9063 c-1.7188 1.5625 -3.0729 3.5416 -4.0625 5.9375 c-0.83336 2.0313 -1.3021 4.2448 -1.4063 6.6406 l0 2.3438 l6.875 0 l0 -2.3438 c0.10414 -1.7709 0.39063 -3.2031 0.85938 -4.2969 c0.625 -1.5104 1.4844 -2.8645 2.5781 -4.0624 c1.3021 -1.1979 2.6563 -2.0833 4.0625 -2.6562 c1.6146 -0.625 3.3855 -0.9375 5.3126 -0.9375 l9.8438 0 l0 -5.9375 l-9.8438 0 z M109.89099999999999 18.984 l0.000076294 1.4843 l0.078125 0 c-0.10414 1.6666 -0.41664 3.2031 -0.9375 4.6094 c-0.67711 1.6146 -1.5365 2.9427 -2.5781 3.9844 c-1.1459 1.1459 -2.5 2.0313 -4.0625 2.6563 c-1.6146 0.625 -3.3855 0.9375 -5.3126 0.9375 l-9.8438 0 l0 5.9375 l9.8438 0 c2.8646 0 5.5209 -0.46875 7.9688 -1.4063 c2.3959 -0.9375 4.4792 -2.2396 6.2501 -3.9063 c1.8229 -1.8229 3.177 -3.802 4.0624 -5.9374 c0.9375 -2.0834 1.4063 -4.375 1.4063 -6.875 l0 -1.4844 l-6.875 0 z M134.094 16.875 l0 -15.547 l-6.5625 0 l0 37.344 l6.5625 0 l0 -21.797 z M151.984 1.328000000000003 l0 15.547 l-11.406 0 l0 6.0938 l11.406 0 l0 15.703 l6.4844 0 l0 -37.344 l-6.4844 0 z  M231.32775 25 c-0.36461 -0.98961 -0.88531 -1.8488 -1.5624 -2.578 c-0.46875 -0.52086 -1.224 -1.1198 -2.2656 -1.797 c-1.1459 -0.57289 -2.1615 -1.0156 -3.0469 -1.3281 c0.625 -0.36461 1.3021 -0.78125 2.0313 -1.25 c0.72914 -0.625 1.276 -1.224 1.6406 -1.7969 c0.46875 -0.625 0.85938 -1.3802 1.1719 -2.2656 c0.3125 -0.9375 0.46875 -1.9531 0.46875 -3.0469 c0 -2.9166 -1.0938 -5.2344 -3.2813 -6.9531 s-5.1563 -2.5781 -8.9063 -2.5781 l-14.453 0 l0 5.7813 l13.672 0 c1.9791 0 3.5938 0.41664 4.8438 1.25 c1.0938 0.83336 1.6406 2.0313 1.6406 3.5938 c0 1.7709 -0.625 3.0469 -1.875 3.8281 c-1.3021 0.83336 -2.9948 1.25 -5.0782 1.25 l-13.203 0 l0 5.4688 l14.609 0 c2.5 0 4.401 0.44273 5.7031 1.3281 c1.25 0.9375 1.875 2.1875 1.875 3.75 c0 1.6666 -0.625 2.9427 -1.875 3.828 c-1.3021 0.88539 -3.0469 1.3281 -5.2344 1.3281 l-15.078 0 l0 5.7813 l15 0 c2.0313 0 3.9063 -0.23438 5.625 -0.70313 c1.7709 -0.52086 3.2031 -1.1719 4.2969 -1.9531 s2.0313 -1.849 2.8125 -3.2031 c0.625 -1.25 0.9375 -2.7084 0.9375 -4.375 c0 -1.3021 -0.15625 -2.4219 -0.46875 -3.3594 z M244.75005 1.4059999999999988 l6.4063 0 l0 31.25 l19.531 0 l0 5.9375 l-25.938 0 l0 -37.188 z M296.06275 32.6562 c-0.78125 -0.15625 -1.5105 -0.3907 -2.1876 -0.7032 c-1.4584 -0.67711 -2.7344 -1.6146 -3.8281 -2.8125 c-1.0416 -1.0938 -1.875 -2.4479 -2.5 -4.0625 c-0.57289 -1.6146 -0.85938 -3.2552 -0.85938 -4.9219 l0 -0.15625 l0 -0.23438 c0 -1.7188 0.28648 -3.3854 0.85938 -5 c0.67711 -1.6666 1.5105 -2.9948 2.5001 -3.9844 c1.0416 -1.1979 2.2916 -2.1094 3.75 -2.7344 c0.88539 -0.41664 1.6406 -0.67703 2.2656 -0.78117 l0 -5.8594 c-1.8229 0.26039 -3.4375 0.70313 -4.8438 1.3281 c-2.2916 0.98961 -4.2448 2.3177 -5.8594 3.9844 s-2.8906 3.6458 -3.8281 5.9374 s-1.4063 4.6875 -1.4063 7.1875 l0 0.15625 l0 0.23438 c0 2.5521 0.46875 4.948 1.4063 7.1876 c0.83336 2.2396 2.0834 4.1927 3.75 5.8594 c1.6666 1.7188 3.6198 3.0469 5.8594 3.9844 c1.4063 0.625 3.0469 1.0677 4.9219 1.3281 l0 -5.9375 z M317.31275 20 l0.000076294 -0.23438 c0 -2.5521 -0.46875 -4.948 -1.4063 -7.1876 c-0.9375 -2.2916 -2.2135 -4.2708 -3.8281 -5.9374 c-1.5625 -1.6666 -3.4896 -2.9688 -5.7813 -3.9063 c-1.3021 -0.625 -2.8906 -1.0677 -4.7656 -1.3281 l0 5.9375 l0.9375 0.3125 c0.46875 0.15625 0.83336 0.28648 1.0938 0.39063 c1.4584 0.67711 2.7344 1.6146 3.8281 2.8125 c1.0416 1.0938 1.875 2.4479 2.5 4.0625 c0.57289 1.6146 0.85938 3.2552 0.85938 4.9219 l0 0.15625 l0 0.23438 c0 1.7188 -0.28648 3.3854 -0.85938 5 c-0.67711 1.6666 -1.5105 2.9948 -2.5001 3.9844 c-1.0416 1.1979 -2.2916 2.1094 -3.75 2.7344 c-0.67711 0.3125 -1.3802 0.54688 -2.1094 0.70313 l0 5.9375 c1.5625 -0.20836 3.125 -0.65109 4.6875 -1.3282 c2.1354 -0.88539 4.0885 -2.2135 5.8594 -3.9844 c1.7188 -1.8229 2.9948 -3.802 3.8281 -5.9374 c0.9375 -2.2916 1.4063 -4.6875 1.4063 -7.1875 l0 -0.15625 z M341.59375 22.891 l13.828 0 l0 -5.7813 l-13.828 0 l0 5.7813 z M355.42175 27.422 l-5.7813 0.000076294 l0 5.3125 l-5.7031 0 c-1.9791 0 -3.75 -0.3125 -5.3125 -0.9375 c-1.5625 -0.57289 -2.9427 -1.4323 -4.1406 -2.5781 c-1.0938 -1.1979 -1.9531 -2.552 -2.5781 -4.0624 c-0.625 -1.4584 -0.9375 -3.1511 -0.9375 -5.0782 c0 -1.8229 0.3125 -3.5156 0.9375 -5.0781 c0.67711 -1.6666 1.5365 -3.0208 2.5781 -4.0624 c1.1459 -1.1459 2.5261 -2.0573 4.1407 -2.7345 c1.5625 -0.625 3.3334 -0.9375 5.3125 -0.9375 l11.406 0.078125 l0 -5.9375 l-11.406 -0.078125 c-2.9166 0 -5.5989 0.46875 -8.0469 1.4063 c-2.3959 0.9375 -4.4792 2.2396 -6.2501 3.9063 c-1.7188 1.6666 -3.099 3.6458 -4.1406 5.9374 c-0.9375 2.2396 -1.4063 4.6875 -1.4063 7.3438 s0.46875 5.1302 1.4063 7.4219 c1.0416 2.3959 2.4219 4.375 4.1406 5.9375 c1.5625 1.5625 3.6459 2.8906 6.25 3.9844 c2.5 0.9375 5.1823 1.4063 8.0469 1.4063 l11.484 0 l0 -11.25 z M385.64075 1.4059999999999988 c-2.8646 0 -5.5209 0.4686 -7.9688 1.4061 c-2.3959 0.9375 -4.4792 2.2396 -6.2501 3.9063 c-1.7188 1.5625 -3.0729 3.5416 -4.0625 5.9375 c-0.83336 2.0313 -1.3021 4.2448 -1.4063 6.6406 l0 2.3438 l6.875 0 l0 -2.3438 c0.10414 -1.7709 0.39063 -3.2031 0.85938 -4.2969 c0.625 -1.5104 1.4844 -2.8645 2.5781 -4.0624 c1.3021 -1.1979 2.6563 -2.0833 4.0625 -2.6562 c1.6146 -0.625 3.3855 -0.9375 5.3126 -0.9375 l9.8438 0 l0 -5.9375 l-9.8438 0 z M388.60975 18.984 l0.000076294 1.4843 l0.078125 0 c-0.10414 1.6666 -0.41664 3.2031 -0.9375 4.6094 c-0.67711 1.6146 -1.5365 2.9427 -2.5781 3.9844 c-1.1459 1.1459 -2.5 2.0313 -4.0625 2.6563 c-1.6146 0.625 -3.3855 0.9375 -5.3126 0.9375 l-9.8438 0 l0 5.9375 l9.8438 0 c2.8646 0 5.5209 -0.46875 7.9688 -1.4063 c2.3959 -0.9375 4.4792 -2.2396 6.2501 -3.9063 c1.8229 -1.8229 3.177 -3.802 4.0624 -5.9374 c0.9375 -2.0834 1.4063 -4.375 1.4063 -6.875 l0 -1.4844 l-6.875 0 z"></path></g>
			</g>
		</svg>
	